<?xml version="1.0" encoding="UTF-8" standalone="no"?>
<svg width="18px" height="13px" viewBox="0 0 18 13" version="1.1" xmlns="http://www.w3.org/2000/svg" xmlns:xlink="http://www.w3.org/1999/xlink">
    <!-- Generator: Sketch 41.2 (35397) - http://www.bohemiancoding.com/sketch -->
    <title>check</title>
    <desc>Created with Sketch.</desc>
    <defs></defs>
    <g id="Templates" stroke="none" stroke-width="1" fill="none" fill-rule="evenodd">
        <g id="2-Qué-es-KS-Consultores" transform="translate(-158.000000, -3506.000000)" fill="#0097AA">
            <g id="Content-76" transform="translate(0.000000, 2963.000000)">
                <path d="M165.158321,551.440804 L160.625531,546.908014 C160.326053,546.608535 159.836008,546.608535 159.536591,546.908014 L158.224562,548.219918 C157.925146,548.519459 157.925146,549.009442 158.224562,549.30892 L164.617956,555.702126 C164.766473,555.850706 164.961927,555.925592 165.157757,555.926782 C165.362924,555.925592 165.558378,555.850706 165.706896,555.702126 L167.018862,554.390347 C167.040419,554.368728 167.059971,554.346043 167.078395,554.322543 L175.775438,545.625563 C176.074854,545.326147 176.074854,544.836039 175.775438,544.536623 L174.463409,543.224593 C174.3137,543.074885 174.116304,543 173.91897,543 C173.721573,543 173.524239,543.074885 173.374531,543.224593 L165.158321,551.440804 Z" id="check"></path>
            </g>
        </g>
    </g>
</svg>