<?xml version="1.0" encoding="UTF-8" standalone="no"?>
<svg width="20px" height="14px" viewBox="0 0 20 14" version="1.1" xmlns="http://www.w3.org/2000/svg" xmlns:xlink="http://www.w3.org/1999/xlink">
    <!-- Generator: Sketch 41.2 (35397) - http://www.bohemiancoding.com/sketch -->
    <title>ico tel</title>
    <desc>Created with Sketch.</desc>
    <defs></defs>
    <g id="Symbols" stroke="none" stroke-width="1" fill="none" fill-rule="evenodd">
        <g id="Footer" transform="translate(-920.000000, -66.000000)" fill="#FFFFFF">
            <g id="ico-tel" transform="translate(918.000000, 61.000000)">
                <path d="M11.9586353,5.37927529 C6.80512941,5.37927529 2.62249412,7.73184 2.62249412,10.6321694 C2.62249412,11.9480753 3.48028235,12.1527812 4.90616471,11.9815341 C5.27872941,11.0062871 5.90767059,10.1346635 6.71054118,9.43245176 C8.06301176,8.25546353 9.91934118,7.53489882 11.9586353,7.53489882 C14.0042824,7.53489882 15.8572235,8.25546353 17.2036235,9.43245176 C18.0159529,10.1346635 18.6448941,11.0062871 19.0174588,11.9815341 C20.4367059,12.1527812 21.2980235,11.9480753 21.2980235,10.6321694 C21.2980235,7.73184 17.1151059,5.37927529 11.9586353,5.37927529" id="Fill-6"></path>
                <path d="M11.9616706,15.1704988 C10.3039765,15.1704988 8.96054118,14.0590165 8.96054118,12.6869224 C8.96054118,11.3159576 10.3039765,10.2000988 11.9616706,10.2000988 C13.6164,10.2000988 14.9721176,11.3159576 14.9721176,12.6869224 C14.9721176,14.0590165 13.6164,15.1704988 11.9616706,15.1704988 M11.9616706,8.70715765 C8.20030588,8.70715765 5.15654118,11.3632518 5.15654118,14.6408047 C5.15654118,17.9183576 8.20030588,18.1349224 11.9616706,18.1349224 C15.7262824,18.1349224 18.7728706,17.9183576 18.7728706,14.6408047 C18.7728706,11.3632518 15.7262824,8.70715765 11.9616706,8.70715765" id="Fill-8"></path>
            </g>
        </g>
    </g>
</svg>