<?xml version="1.0" encoding="UTF-8" standalone="no"?>
<svg width="13px" height="16px" viewBox="0 0 13 16" version="1.1" xmlns="http://www.w3.org/2000/svg" xmlns:xlink="http://www.w3.org/1999/xlink">
    <!-- Generator: Sketch 41.2 (35397) - http://www.bohemiancoding.com/sketch -->
    <title>Group 2</title>
    <desc>Created with Sketch.</desc>
    <defs>
        <polygon id="path-1" points="6.4285714e-05 0.259268571 6.4285714e-05 17.914188 14.5376357 17.914188 14.5376357 0.259268571"></polygon>
    </defs>
    <g id="Symbols" stroke="none" stroke-width="1" fill="none" fill-rule="evenodd">
        <g id="Footer" transform="translate(-171.000000, -63.000000)">
            <g id="ico-place" transform="translate(170.000000, 62.000000)">
                <g id="Group-2">
                    <g id="Group-3" transform="translate(0.000000, 0.066478)">
                        <mask id="mask-2" fill="white">
                            <use xlink:href="#path-1"></use>
                        </mask>
                        <g id="Clip-2"></g>
                        <path d="M7.26949286,4.94424514 C5.80892143,4.94424514 4.62092143,6.14613086 4.62092143,7.62389657 C4.62092143,9.10263943 5.80892143,10.3055023 7.26949286,10.3055023 C8.72685,10.3055023 9.91292143,9.10263943 9.91292143,7.62389657 C9.91292143,6.14613086 8.72685,4.94424514 7.26949286,4.94424514 L7.26949286,4.94424514 Z M7.26949286,1.562028 C3.97002857,1.562028 1.28577857,4.28141657 1.28577857,7.62389657 C1.28577857,10.2230966 5.27663571,14.3831194 7.26917143,16.1924623 C9.26170714,14.382468 13.2519214,10.2204909 13.2519214,7.62389657 C13.2519214,4.28141657 10.5683143,1.562028 7.26949286,1.562028 L7.26949286,1.562028 Z" id="Fill-1" fill="#FFFFFF" mask="url(#mask-2)"></path>
                    </g>
                    <path d="M7.26949286,5.01072343 C5.80892143,5.01072343 4.62092143,6.21260914 4.62092143,7.69037486 C4.62092143,9.16911771 5.80892143,10.3719806 7.26949286,10.3719806 C8.72685,10.3719806 9.91292143,9.16911771 9.91292143,7.69037486 C9.91292143,6.21260914 8.72685,5.01072343 7.26949286,5.01072343 M7.26949286,11.6748377 C5.10017143,11.6748377 3.33520714,9.88731771 3.33520714,7.69037486 C3.33520714,5.49408343 5.10017143,3.70786629 7.26949286,3.70786629 C9.43592143,3.70786629 11.1986357,5.49408343 11.1986357,7.69037486 C11.1986357,9.88731771 9.43592143,11.6748377 7.26949286,11.6748377" id="Fill-4" fill="#FFFFFF"></path>
                </g>
            </g>
        </g>
    </g>
</svg>